<?xml version="1.0" encoding="UTF-8"?>
<svg id="Layer_2" data-name="Layer 2" xmlns="http://www.w3.org/2000/svg" viewBox="0 0 693.11 473.15">
  <defs>
    <style>
      .cls-1 {
        fill: #fff;
        stroke-width: 0px;
      }
    </style>
  </defs>
  <g id="_Слой_1" data-name="Слой 1">
    <g>
      <path class="cls-1" d="m693.11,382.28c-30.38,1.98-69.48,3.89-107.67,3.89-13.01,0-25.91-.22-38.3-.72-68.54-2.85-101.19-13.33-105.83-34.09-4.32-19.42,11.57-46.88,155.2-103.38,8.94-3.5,48.17-15.83,58.08-19.58l-45.4,37.24,69.4,96.47,14.52,20.18Z"/>
      <path class="cls-1" d="m578.21,222.56c15.42-4.07,71.1-19.49,71.1-19.49l-84.24,1.27-69.83-97.12,1.78-66.36.85-30.17-26.19,15-24.83,14.24-6.1-8.47c-30.25-41.95-92.8-41.95-123.05,0L0,473.15h292.79c-83.3-34.07-102.54-60.93-102.03-78.73,1.86-64.58,251.95-136.02,387.45-171.86Zm-121.44-168.81l23.3-13.39-1.19,44.15-3.39,125.08-62.63-46.52-33.39,36.02,26.61-74.07-57.2-9.32,107.88-61.95Z"/>
    </g>
  </g>
</svg>