<?xml version="1.0" encoding="UTF-8"?>
<svg id="Layer_2" data-name="Layer 2" xmlns="http://www.w3.org/2000/svg" viewBox="0 0 1671.67 181.98">
  <defs>
    <style>
      .cls-1 {
        fill: #214d6e;
      }

      .cls-1, .cls-2, .cls-3 {
        stroke-width: 0px;
      }

      .cls-2 {
        fill: #1a9fd3;
      }

      .cls-3 {
        fill: #8d4e31;
      }
    </style>
  </defs>
  <g id="_Слой_1" data-name="Слой 1">
    <g>
      <g>
        <g>
          <g>
            <path class="cls-1" d="m384.93,25.63c-1.17-3.03-3.26-5.57-5.8-7.33-2.61-1.76-5.67-2.77-8.96-2.77-6.52,0-12.35,4.01-14.73,10.1l-56.71,145.47h20.73l16.69-43.74h67.63l16.69,43.74h21.19l-56.71-145.47Zm-41.59,83.02l26.63-69.42,26.6,69.42h-53.23Z"/>
            <path class="cls-1" d="m541.06,15.52v60.43c-9.03-11.51-23.43-18.48-40.12-18.48-32.69,0-56.81,25.46-56.81,57.95s24.12,57.92,56.81,57.92c17.14,0,32.01-7.2,40.81-19.17v16.92h18.48V15.52h-19.16Zm-38.79,139.8c-22.52,0-38.98-16.69-38.98-39.89s16.46-39.93,38.98-39.93,39.01,16.69,39.01,39.93-16.46,39.89-39.01,39.89Z"/>
            <path class="cls-1" d="m665.04,59.72l-35.17,87.94-35.17-87.94h-20.96l45.31,111.37h21.19l45.53-111.37h-20.73Z"/>
            <path class="cls-1" d="m777.98,134.36c-5.87,12.84-18.02,21.41-34.26,21.41-20.08,0-34.97-13.1-37.45-33.83h90.42c.46-2.71.46-5.64.46-8.12,0-32.46-22.78-56.35-54.79-56.35s-55.44,25.46-55.44,57.95,24.54,57.92,56.81,57.92c24.58,0,45.53-14.86,54.11-38.98h-19.85Zm-35.85-59.32c19.62,0,33.15,12.87,35.17,30.44h-70.57c3.62-18.48,17.37-30.44,35.4-30.44Z"/>
            <path class="cls-1" d="m869.96,57.47c-14.9,0-27.05,5.64-34.52,14.86v-12.61h-18.48v111.37h19.17v-62.22c0-20.31,12.84-33.38,31.78-33.38s29.99,12.42,29.99,33.38v62.22h19.17v-63.82c0-30.64-19.62-49.8-47.1-49.8Z"/>
            <path class="cls-1" d="m1001.15,77.74v-18.02h-32.01v-28.39h-19.17v22.52c0,3.85-1.83,5.87-5.18,5.87h-14.44v18.02h19.62v62.68c0,20.53,11.51,30.67,34.26,30.67h16.92v-18.02h-16.69c-10.82,0-15.32-4.99-15.32-14.44v-60.88h32.01Z"/>
            <path class="cls-1" d="m1096.94,59.72v61.76c0,21.19-11.93,33.83-30.44,33.83s-30.41-12.65-30.41-33.83v-61.76h-19.16v62.68c0,31.32,20.27,50.94,49.57,50.94s49.61-19.62,49.61-50.94v-62.68h-19.17Z"/>
            <path class="cls-1" d="m1193.19,59.72c-16.46,0-27.28,5.87-34.03,16v-16h-18.48v111.37h19.17v-61.31c0-18.06,9-31.13,31.55-31.13h9.03v-18.94h-7.24Z"/>
            <path class="cls-2" d="m1325.07,15.52v88.17c0,32.24-17.11,50.72-44.62,50.72s-44.65-18.71-44.65-50.72V15.52h-19.59v88.85c0,43.28,25.68,68.97,64.24,68.97s64.24-25.46,64.24-68.97V15.52h-19.62Z"/>
            <path class="cls-2" d="m1417.96,108.19l-9.26-1.56c-16-2.71-24.35-5.64-24.35-16.23s9.68-16,22.55-16c14.86,0,23.66,9.45,25,19.59h19.39c-.88-19.36-18.48-36.5-44.39-36.5-23.24,0-41.49,12.39-41.49,32.92,0,18.94,10.59,28.16,34.71,32.24l9.26,1.56c16.23,2.71,24.35,5.87,24.35,16.46s-9.71,15.77-24.35,15.77-25.26-7.2-27.28-19.82h-19.39c1.56,21.19,19.85,36.73,46.67,36.73,25.23,0,43.51-12.39,43.51-32.69,0-18.48-10.82-28.39-34.94-32.46Z"/>
          </g>
          <g>
            <path class="cls-1" d="m1450.16,15.52v7.27h19.17v52.28h7.53V22.79h19.13v-7.27h-45.83Z"/>
            <path class="cls-1" d="m1516.62,32.44c-6.29,0-10.43,2.25-13.04,6.13v-6.13h-7.07v42.63h7.33v-23.47c0-6.91,3.45-11.9,12.09-11.9h3.45v-7.27h-2.77Z"/>
            <path class="cls-1" d="m1558.99,32.44v6.58c-3.45-4.66-9.06-7.43-15.61-7.43-12.52,0-21.74,9.75-21.74,22.16s9.22,22.2,21.74,22.2c6.55,0,12.26-2.77,15.61-7.33v6.45h7.07v-42.63h-7.07Zm-15.09,36.6c-8.64,0-14.93-6.39-14.93-15.29s6.29-15.25,14.93-15.25,14.93,6.39,14.93,15.25-6.32,15.29-14.93,15.29Z"/>
            <path class="cls-1" d="m1606.19,32.44l-13.46,33.67-13.46-33.67h-8.02l17.34,42.63h8.12l17.44-42.63h-7.95Z"/>
            <path class="cls-1" d="m1649.41,61.02c-2.22,4.92-6.88,8.18-13.1,8.18-7.69,0-13.36-4.99-14.34-12.94h34.61c.16-1.04.16-2.15.16-3.1,0-12.45-8.7-21.58-20.96-21.58s-21.22,9.75-21.22,22.16,9.39,22.2,21.74,22.2c9.42,0,17.44-5.7,20.7-14.93h-7.59Zm-13.72-22.72c7.53,0,12.71,4.92,13.46,11.67h-26.99c1.37-7.07,6.65-11.67,13.53-11.67Z"/>
            <path class="cls-1" d="m1664.33,15.52v59.55h7.33V15.52h-7.33Z"/>
          </g>
        </g>
        <path class="cls-3" d="m266.58,147.03c-11.68.76-26.72,1.5-41.41,1.5-5,0-9.96-.08-14.73-.28-26.36-1.09-38.92-5.13-40.71-13.11-1.66-7.47,4.45-18.03,59.69-39.76,3.44-1.34,18.53-6.09,22.34-7.53l-17.46,14.32,26.69,37.1,5.59,7.76Z"/>
      </g>
      <path class="cls-2" d="m222.39,85.6c5.93-1.56,27.35-7.5,27.35-7.5l-32.4.49-26.86-37.35.68-25.52.33-11.6-10.07,5.77-9.55,5.48-2.35-3.26c-11.64-16.13-35.69-16.13-47.33,0L0,181.98h112.61c-32.04-13.1-39.44-23.43-39.24-30.28.72-24.84,96.9-52.31,149.02-66.1Zm-46.71-64.93l8.96-5.15-.46,16.98-1.3,48.11-24.09-17.89-12.84,13.85,10.23-28.49-22-3.58,41.49-23.83Z"/>
    </g>
  </g>
</svg>