<?xml version="1.0" encoding="UTF-8"?>
<svg id="_Слой_1" data-name="Слой 1" xmlns="http://www.w3.org/2000/svg" viewBox="0 0 1300 900">
  <defs>
    <style>
      .cls-1 {
        fill: #214d6e;
      }

      .cls-1, .cls-2, .cls-3, .cls-4 {
        stroke-width: 0px;
      }

      .cls-2 {
        fill: #1a9fd3;
      }

      .cls-3 {
        fill: #fff;
      }

      .cls-4 {
        fill: #8d4e31;
      }
    </style>
  </defs>
  <rect class="cls-1" x="-33.36" y="-13.61" width="1366.71" height="927.23"/>
  <g>
    <g>
      <g>
        <g>
          <path class="cls-3" d="m511.66,429.95c-.36-.93-1-1.71-1.78-2.25-.8-.54-1.74-.85-2.75-.85-2,0-3.8,1.23-4.52,3.1l-17.4,44.63h6.36l5.12-13.42h20.75l5.12,13.42h6.5l-17.4-44.63Zm-12.76,25.47l8.16-21.3,8.17,21.3h-16.33Z"/>
          <path class="cls-3" d="m559.56,426.85v18.54c-2.77-3.53-7.19-5.67-12.31-5.67-10.03,0-17.43,7.81-17.43,17.78s7.4,17.77,17.43,17.77c5.25,0,9.82-2.21,12.52-5.88v5.19h5.67v-47.73h-5.88Zm-11.9,42.89c-6.91,0-11.96-5.12-11.96-12.24s5.05-12.25,11.96-12.25,11.97,5.12,11.97,12.25-5.05,12.24-11.97,12.24Z"/>
          <path class="cls-3" d="m597.6,440.41l-10.79,26.98-10.79-26.98h-6.44l13.91,34.17h6.5l13.97-34.17h-6.36Z"/>
          <path class="cls-3" d="m632.25,463.31c-1.8,3.94-5.54,6.57-10.52,6.57-6.15,0-10.72-4.02-11.48-10.38h27.74c.14-.83.14-1.73.14-2.49,0-9.96-6.99-17.29-16.81-17.29s-17.02,7.81-17.02,17.78,7.54,17.77,17.43,17.77c7.54,0,13.98-4.56,16.6-11.96h-6.08Zm-11-18.2c6.02,0,10.17,3.95,10.79,9.34h-21.65c1.11-5.67,5.33-9.34,10.86-9.34Z"/>
          <path class="cls-3" d="m660.46,439.72c-4.56,0-8.29,1.73-10.58,4.56v-3.87h-5.67v34.17h5.88v-19.09c0-6.23,3.94-10.24,9.75-10.24s9.2,3.81,9.2,10.24v19.09h5.88v-19.58c0-9.4-6.02-15.28-14.46-15.28Z"/>
          <path class="cls-3" d="m700.72,445.94v-5.53h-9.82v-8.71h-5.88v6.91c0,1.18-.56,1.8-1.59,1.8h-4.43v5.53h6.02v19.23c0,6.3,3.52,9.41,10.51,9.41h5.19v-5.53h-5.12c-3.32,0-4.7-1.53-4.7-4.43v-18.68h9.82Z"/>
          <path class="cls-3" d="m730.11,440.41v18.95c0,6.5-3.66,10.38-9.34,10.38s-9.33-3.88-9.33-10.38v-18.95h-5.88v19.23c0,9.61,6.22,15.63,15.21,15.63s15.22-6.02,15.22-15.63v-19.23h-5.88Z"/>
          <path class="cls-3" d="m759.64,440.41c-5.05,0-8.37,1.8-10.44,4.91v-4.91h-5.67v34.17h5.88v-18.81c0-5.54,2.76-9.55,9.68-9.55h2.77v-5.81h-2.22Z"/>
          <path class="cls-2" d="m800.1,426.85v27.05c0,9.89-5.25,15.56-13.69,15.56s-13.7-5.74-13.7-15.56v-27.05h-6.02v27.26c0,13.28,7.89,21.16,19.72,21.16s19.71-7.81,19.71-21.16v-27.26h-6.02Z"/>
          <path class="cls-2" d="m828.59,455.28l-2.83-.48c-4.91-.83-7.47-1.73-7.47-4.98s2.97-4.91,6.92-4.91c4.56,0,7.26,2.9,7.67,6.01h5.95c-.27-5.94-5.67-11.2-13.62-11.2-7.13,0-12.73,3.8-12.73,10.1,0,5.81,3.25,8.64,10.65,9.89l2.84.48c4.98.83,7.47,1.8,7.47,5.05s-2.98,4.84-7.47,4.84-7.75-2.21-8.37-6.08h-5.95c.48,6.5,6.08,11.27,14.32,11.27,7.74,0,13.35-3.8,13.35-10.03,0-5.67-3.32-8.71-10.73-9.96Z"/>
        </g>
        <g>
          <path class="cls-3" d="m838.48,426.85v2.23h5.88v16.04h2.3v-16.04h5.88v-2.23h-14.06Z"/>
          <path class="cls-3" d="m858.87,432.04c-1.93,0-3.2.69-4,1.88v-1.88h-2.17v13.08h2.25v-7.2c0-2.12,1.06-3.65,3.71-3.65h1.06v-2.23h-.85Z"/>
          <path class="cls-3" d="m871.87,432.04v2.02c-1.06-1.43-2.78-2.28-4.79-2.28-3.84,0-6.68,2.99-6.68,6.8s2.84,6.81,6.68,6.81c2.01,0,3.76-.85,4.79-2.25v1.98h2.17v-13.08h-2.17Zm-4.63,11.23c-2.65,0-4.59-1.96-4.59-4.69s1.94-4.68,4.59-4.68,4.58,1.96,4.58,4.68-1.94,4.69-4.58,4.69Z"/>
          <path class="cls-3" d="m886.35,432.04l-4.13,10.33-4.13-10.33h-2.46l5.32,13.08h2.49l5.35-13.08h-2.44Z"/>
          <path class="cls-3" d="m899.61,440.81c-.69,1.51-2.11,2.51-4.02,2.51-2.36,0-4.11-1.53-4.4-3.97h10.62c.05-.32.05-.66.05-.95,0-3.82-2.67-6.62-6.43-6.62s-6.51,2.99-6.51,6.8,2.88,6.81,6.67,6.81c2.88,0,5.35-1.75,6.35-4.58h-2.33Zm-4.21-6.97c2.31,0,3.9,1.51,4.13,3.58h-8.28c.42-2.17,2.04-3.58,4.15-3.58Z"/>
          <path class="cls-3" d="m904.19,426.85v18.27h2.25v-18.27h-2.25Z"/>
        </g>
      </g>
      <path class="cls-4" d="m475.35,467.2c-3.58.23-8.2.46-12.71.46-1.54,0-3.06-.03-4.52-.09-8.09-.34-11.94-1.57-12.49-4.02-.51-2.29,1.36-5.53,18.31-12.2,1.05-.41,5.68-1.87,6.85-2.31l-5.36,4.39,8.19,11.38,1.71,2.38Z"/>
    </g>
    <path class="cls-2" d="m461.79,448.35c1.82-.48,8.39-2.3,8.39-2.3l-9.94.15-8.24-11.45.21-7.84.1-3.56-3.09,1.77-2.94,1.68-.72-1c-3.56-4.95-10.94-4.95-14.51,0l-37.49,52.12h34.54c-9.83-4.02-12.09-7.19-12.03-9.29.22-7.62,29.72-16.05,45.72-20.28Zm-14.34-19.92l2.76-1.58-.14,5.22-.4,14.75-7.4-5.49-3.93,4.25,3.14-8.74-6.75-1.1,12.72-7.31Z"/>
  </g>
</svg>